<svg width="1080" height="306" viewBox="0 0 1080 306" fill="none" xmlns="http://www.w3.org/2000/svg">
<path d="M201.552 200V144.6C201.552 137.4 199.286 131.467 194.752 126.8C190.219 122.133 184.352 119.8 177.152 119.8C172.352 119.8 168.086 120.867 164.352 123C160.619 125.133 157.686 128.067 155.552 131.8C153.419 135.533 152.352 139.8 152.352 144.6L144.952 140.4C144.952 133.2 146.552 126.8 149.752 121.2C152.952 115.6 157.419 111.2 163.152 108C168.886 104.667 175.352 103 182.552 103C189.752 103 196.086 104.8 201.552 108.4C207.152 112 211.552 116.733 214.752 122.6C217.952 128.333 219.552 134.467 219.552 141V200H201.552ZM134.352 200V105H152.352V200H134.352ZM275.123 200.8L233.923 105H253.923L284.523 180H278.123L310.323 105H330.323L285.923 200.8H275.123ZM247.923 239.8L275.923 182.4L285.923 200.8L267.923 239.8H247.923ZM384.784 202C375.45 202 367.05 199.8 359.584 195.4C352.117 191 346.184 185.067 341.784 177.6C337.384 170 335.184 161.533 335.184 152.2C335.184 143 337.384 134.733 341.784 127.4C346.184 119.933 352.117 114 359.584 109.6C367.05 105.2 375.45 103 384.784 103C393.984 103 402.317 105.2 409.784 109.6C417.384 113.867 423.384 119.733 427.784 127.2C432.184 134.667 434.384 143 434.384 152.2C434.384 161.533 432.184 170 427.784 177.6C423.384 185.067 417.384 191 409.784 195.4C402.317 199.8 393.984 202 384.784 202ZM384.784 184.6C390.784 184.6 396.117 183.2 400.784 180.4C405.45 177.6 409.117 173.8 411.784 169C414.45 164.067 415.784 158.467 415.784 152.2C415.784 146.067 414.384 140.6 411.584 135.8C408.917 131 405.25 127.267 400.584 124.6C396.05 121.8 390.784 120.4 384.784 120.4C378.784 120.4 373.45 121.8 368.784 124.6C364.117 127.267 360.45 131 357.784 135.8C355.117 140.6 353.784 146.067 353.784 152.2C353.784 158.467 355.117 164.067 357.784 169C360.45 173.8 364.117 177.6 368.784 180.4C373.45 183.2 378.784 184.6 384.784 184.6Z" fill="white"/>
<path d="M479.13 200L441.53 105H460.33L487.53 179H481.53L508.53 105H518.93L545.93 179H539.93L567.13 105H585.93L548.53 200H537.93L510.53 128.2H517.13L489.53 200H479.13ZM642.596 202C633.263 202 624.863 199.8 617.396 195.4C609.929 191 603.996 185.067 599.596 177.6C595.196 170 592.996 161.533 592.996 152.2C592.996 143 595.196 134.733 599.596 127.4C603.996 119.933 609.929 114 617.396 109.6C624.863 105.2 633.263 103 642.596 103C651.796 103 660.129 105.2 667.596 109.6C675.196 113.867 681.196 119.733 685.596 127.2C689.996 134.667 692.196 143 692.196 152.2C692.196 161.533 689.996 170 685.596 177.6C681.196 185.067 675.196 191 667.596 195.4C660.129 199.8 651.796 202 642.596 202ZM642.596 184.6C648.596 184.6 653.929 183.2 658.596 180.4C663.263 177.6 666.929 173.8 669.596 169C672.263 164.067 673.596 158.467 673.596 152.2C673.596 146.067 672.196 140.6 669.396 135.8C666.729 131 663.063 127.267 658.396 124.6C653.863 121.8 648.596 120.4 642.596 120.4C636.596 120.4 631.263 121.8 626.596 124.6C621.929 127.267 618.263 131 615.596 135.8C612.929 140.6 611.596 146.067 611.596 152.2C611.596 158.467 612.929 164.067 615.596 169C618.263 173.8 621.929 177.6 626.596 180.4C631.263 183.2 636.596 184.6 642.596 184.6ZM712.477 200V105H730.477V200H712.477ZM730.477 145.8L723.677 142.8C723.677 130.667 726.477 121 732.077 113.8C737.677 106.6 745.744 103 756.277 103C761.077 103 765.411 103.867 769.277 105.6C773.144 107.2 776.744 109.933 780.077 113.8L768.277 126C766.277 123.867 764.077 122.333 761.677 121.4C759.277 120.467 756.477 120 753.277 120C746.611 120 741.144 122.133 736.877 126.4C732.611 130.667 730.477 137.133 730.477 145.8ZM853.551 200L809.151 151.4L853.151 105H874.951L825.951 156.2L826.751 145.8L876.751 200H853.551ZM792.751 200V57.2H810.751V200H792.751ZM916.896 202C911.563 202 906.496 201.333 901.696 200C897.029 198.533 892.696 196.533 888.696 194C884.696 191.333 881.229 188.2 878.296 184.6L889.896 173C893.363 177.267 897.363 180.467 901.896 182.6C906.429 184.6 911.496 185.6 917.096 185.6C922.696 185.6 927.029 184.667 930.096 182.8C933.163 180.8 934.696 178.067 934.696 174.6C934.696 171.133 933.429 168.467 930.896 166.6C928.496 164.6 925.363 163 921.496 161.8C917.629 160.467 913.496 159.2 909.096 158C904.829 156.667 900.763 155 896.896 153C893.029 151 889.829 148.267 887.296 144.8C884.896 141.333 883.696 136.733 883.696 131C883.696 125.267 885.096 120.333 887.896 116.2C890.696 111.933 894.563 108.667 899.496 106.4C904.563 104.133 910.629 103 917.696 103C925.163 103 931.763 104.333 937.496 107C943.363 109.533 948.163 113.4 951.896 118.6L940.296 130.2C937.629 126.733 934.296 124.067 930.296 122.2C926.429 120.333 922.029 119.4 917.096 119.4C911.896 119.4 907.896 120.333 905.096 122.2C902.429 123.933 901.096 126.4 901.096 129.6C901.096 132.8 902.296 135.267 904.696 137C907.096 138.733 910.229 140.2 914.096 141.4C918.096 142.6 922.229 143.867 926.496 145.2C930.763 146.4 934.829 148.067 938.696 150.2C942.563 152.333 945.696 155.2 948.096 158.8C950.629 162.4 951.896 167.133 951.896 173C951.896 181.933 948.696 189 942.296 194.2C936.029 199.4 927.563 202 916.896 202Z" fill="#CCCBCB"/>
</svg>
